<svg width="47" height="47" viewBox="0 0 47 47" fill="none" xmlns="http://www.w3.org/2000/svg">
<circle cx="23.5" cy="23.5" r="23.5" fill="#131510"/>
<g clip-path="url(#clip0_76_13)">
<rect width="24.64" height="28" transform="translate(11 10)" fill="#131510"/>
<path d="M23.3254 17.7107C19.8274 17.7107 17.0059 20.5162 17.0059 23.9943C17.0059 27.4725 19.8274 30.2779 23.3254 30.2779C26.8234 30.2779 29.6449 27.4725 29.6449 23.9943C29.6449 20.5162 26.8234 17.7107 23.3254 17.7107ZM23.3254 28.0795C21.0649 28.0795 19.2169 26.2475 19.2169 23.9943C19.2169 21.7412 21.0594 19.9092 23.3254 19.9092C25.5914 19.9092 27.4339 21.7412 27.4339 23.9943C27.4339 26.2475 25.5859 28.0795 23.3254 28.0795ZM31.3774 17.4537C31.3774 18.2686 30.7174 18.9193 29.9034 18.9193C29.0839 18.9193 28.4294 18.2631 28.4294 17.4537C28.4294 16.6443 29.0894 15.9881 29.9034 15.9881C30.7174 15.9881 31.3774 16.6443 31.3774 17.4537ZM35.5629 18.9412C35.4694 16.9779 35.0184 15.2389 33.5719 13.8061C32.1309 12.3732 30.3819 11.9248 28.4074 11.8264C26.3724 11.7115 20.2729 11.7115 18.2379 11.8264C16.2689 11.9193 14.5199 12.3678 13.0734 13.8006C11.6269 15.2334 11.1814 16.9725 11.0824 18.9357C10.9669 20.9592 10.9669 27.024 11.0824 29.0475C11.1759 31.0107 11.6269 32.7498 13.0734 34.1826C14.5199 35.6154 16.2634 36.0639 18.2379 36.1623C20.2729 36.2771 26.3724 36.2771 28.4074 36.1623C30.3819 36.0693 32.1309 35.6209 33.5719 34.1826C35.0129 32.7498 35.4639 31.0107 35.5629 29.0475C35.6784 27.024 35.6784 20.9646 35.5629 18.9412ZM32.9339 31.2186C32.5049 32.2904 31.6744 33.1162 30.5909 33.5482C28.9684 34.1881 25.1184 34.0404 23.3254 34.0404C21.5324 34.0404 17.6769 34.1826 16.0599 33.5482C14.9819 33.1217 14.1514 32.2959 13.7169 31.2186C13.0734 29.6053 13.2219 25.7771 13.2219 23.9943C13.2219 22.2115 13.0789 18.3779 13.7169 16.7701C14.1459 15.6982 14.9764 14.8725 16.0599 14.4404C17.6824 13.8006 21.5324 13.9482 23.3254 13.9482C25.1184 13.9482 28.9739 13.8061 30.5909 14.4404C31.6689 14.867 32.4994 15.6928 32.9339 16.7701C33.5774 18.3834 33.4289 22.2115 33.4289 23.9943C33.4289 25.7771 33.5774 29.6107 32.9339 31.2186Z" fill="white"/>
</g>
<defs>
<clipPath id="clip0_76_13">
<rect width="24.64" height="28" fill="white" transform="translate(11 10)"/>
</clipPath>
</defs>
</svg>
