<svg width="47" height="47" viewBox="0 0 47 47" fill="none" xmlns="http://www.w3.org/2000/svg">
<path d="M23.5 0C10.5181 0 0 10.5181 0 23.5C0 36.4819 10.5181 47 23.5 47C36.4819 47 47 36.4819 47 23.5C47 10.5181 36.4819 0 23.5 0ZM34.3972 15.9857C34.0466 19.7002 32.5115 28.7212 31.7345 32.881C31.4028 34.6435 30.7585 35.231 30.1331 35.2879C28.7685 35.4111 27.7357 34.3877 26.4091 33.5159C24.3433 32.1609 23.1683 31.3175 21.169 29.9909C18.8474 28.4653 20.354 27.622 21.6712 26.248C22.0218 25.8879 28.0294 20.4204 28.1431 19.9276C28.1621 19.8613 28.1716 19.6339 28.0294 19.5107C27.8873 19.3875 27.6883 19.4349 27.5462 19.4633C27.3377 19.5075 24.0338 21.6901 17.6345 26.0111C16.6995 26.6554 15.8499 26.9681 15.0855 26.9492C14.2421 26.9302 12.6312 26.4754 11.4278 26.0869C9.95907 25.6131 8.78407 25.3573 8.88831 24.5423C8.93884 24.1191 9.52319 23.6864 10.6413 23.2442C17.4892 20.2624 22.0565 18.2946 24.3433 17.3407C30.8722 14.6306 32.2272 14.1569 33.1085 14.1379C33.3075 14.1379 33.7339 14.1853 34.0181 14.4127C34.2037 14.5758 34.3219 14.8021 34.3498 15.0476C34.401 15.3575 34.4169 15.6722 34.3972 15.9857Z" fill="#131510"/>
</svg>
