<svg width="25" height="25" viewBox="0 0 25 25" fill="none" xmlns="http://www.w3.org/2000/svg">
<path d="M11.0254 22.8613L10.9033 22.749L2.34863 14.8047C0.849609 13.4131 0 11.46 0 9.41407V9.25294C0 5.81544 2.44141 2.86622 5.82031 2.22169C7.74414 1.8506 9.71191 2.29493 11.2793 3.39845C11.7188 3.71095 12.1289 4.07228 12.5 4.48731C12.7051 4.25294 12.9248 4.0381 13.1592 3.8379C13.3398 3.68165 13.5254 3.53517 13.7207 3.39845C15.2881 2.29493 17.2559 1.8506 19.1797 2.21681C22.5586 2.86134 25 5.81544 25 9.25294V9.41407C25 11.46 24.1504 13.4131 22.6514 14.8047L14.0967 22.749L13.9746 22.8613C13.5742 23.2324 13.0469 23.4424 12.5 23.4424C11.9531 23.4424 11.4258 23.2373 11.0254 22.8613ZM11.6748 7.08009C11.6553 7.06544 11.6406 7.04591 11.626 7.02638L10.7568 6.04982L10.752 6.04493C9.62402 4.78028 7.91992 4.20411 6.25977 4.52149C3.98438 4.95606 2.34375 6.93849 2.34375 9.25294V9.41407C2.34375 10.8057 2.9248 12.1387 3.94531 13.0859L12.5 21.0303L21.0547 13.0859C22.0752 12.1387 22.6562 10.8057 22.6562 9.41407V9.25294C22.6562 6.94337 21.0156 4.95606 18.7451 4.52149C17.085 4.20411 15.376 4.78517 14.2529 6.04493C14.2529 6.04493 14.2529 6.04493 14.248 6.04982C14.2432 6.0547 14.248 6.04981 14.2432 6.0547L13.374 7.03126C13.3594 7.05079 13.3398 7.06544 13.3252 7.08497C13.1055 7.3047 12.8076 7.42677 12.5 7.42677C12.1924 7.42677 11.8945 7.3047 11.6748 7.08497V7.08009Z" fill="#131510"/>
</svg>
